<svg id="Capa_1" enable-background="new 0 0 512 512" height="512" viewBox="0 0 512 512" width="512" xmlns="http://www.w3.org/2000/svg"><g><g><path d="m255.999 104.303h-38.598c-3.75 0-7.345 1.503-10.123 4.233-7.571 7.438-21.513 16.304-44.935 16.304-27.677 0-49.098-14.503-60.316-40.837-2.22-5.21-7.343-8.577-13.053-8.577h-34.24c-6.903 0-12.5-5.596-12.5-12.5s5.597-12.5 12.5-12.5h34.24c15.748 0 29.899 9.334 36.053 23.779 7.246 17.01 19.801 25.635 37.316 25.635 14.971 0 23.171-4.969 27.415-9.137 7.481-7.351 17.299-11.399 27.643-11.399h38.598z" fill="#5b5555"/></g><g><path d="m256 104.303h38.598c3.75 0 7.345 1.503 10.123 4.233 7.571 7.438 21.513 16.304 44.935 16.304 27.677 0 49.098-14.503 60.316-40.837 2.22-5.21 7.343-8.577 13.053-8.577h34.24c6.903 0 12.5-5.596 12.5-12.5s-5.597-12.5-12.5-12.5h-34.24c-15.748 0-29.899 9.334-36.053 23.779-7.246 17.01-19.801 25.635-37.316 25.635-14.971 0-23.171-4.969-27.415-9.137-7.481-7.351-17.299-11.399-27.643-11.399h-38.598z" fill="#5b5555"/></g><g><path d="m280.823 485.706h-49.646l12.127-435.632h25.392z" fill="#fcb44d"/><g fill="#fb9927"><path d="m269.67 84.864c-4.26 1.58-8.87 2.44-13.67 2.44s-9.41-.86-13.67-2.44l.97-34.79h25.4z"/><path d="m235.322 336.796-1.13 40.59h43.616l-1.13-40.59z"/></g></g><g><g><g><path d="m97.892 400.315h-48.228c-23.287 0-42.164-18.878-42.164-42.164v-4.855c0-6.606 5.355-11.961 11.961-11.961h108.634c6.606 0 11.961 5.355 11.961 11.961v4.855c0 23.287-18.878 42.164-42.164 42.164z" fill="#fcb44d"/><path d="m140.056 353.302v4.844c0 23.288-18.874 42.174-42.162 42.174h-33.706c23.288 0 42.162-18.886 42.162-42.174v-4.844c0-6.614-5.358-11.961-11.961-11.961h33.706c6.603 0 11.961 5.346 11.961 11.961z" fill="#fb9927"/></g></g><g><circle cx="73.778" cy="125.761" fill="#fcb44d" r="18.807"/><path d="m92.582 125.762c0 10.388-8.42 18.808-18.808 18.808-4.109 0-7.903-1.319-10.997-3.551 6.493-2.962 10.997-9.516 10.997-17.114 0-6.28-3.074-11.839-7.801-15.247 2.374-1.096 5.022-1.704 7.801-1.704 10.388 0 18.808 8.42 18.808 18.808z" fill="#fb9927"/></g><g><g><path d="m462.335 400.315h-48.227c-23.287 0-42.164-18.878-42.164-42.164v-4.855c0-6.606 5.355-11.961 11.961-11.961h108.634c6.606 0 11.961 5.355 11.961 11.961v4.855c-.001 23.287-18.878 42.164-42.165 42.164z" fill="#fcb44d"/><path d="m504.5 353.302v4.844c0 23.288-18.874 42.174-42.162 42.174h-33.706c23.288 0 42.162-18.886 42.162-42.174v-4.844c0-6.614-5.358-11.961-11.961-11.961h33.706c6.603 0 11.961 5.346 11.961 11.961z" fill="#fb9927"/></g></g><g><circle cx="438.222" cy="125.761" fill="#fcb44d" r="18.807"/><path d="m457.027 125.762c0 10.388-8.42 18.808-18.808 18.808-4.109 0-7.903-1.319-10.997-3.551 6.493-2.962 10.997-9.516 10.997-17.114 0-6.28-3.074-11.839-7.801-15.247 2.374-1.096 5.022-1.704 7.801-1.704 10.388 0 18.808 8.42 18.808 18.808z" fill="#fb9927"/></g></g><circle cx="256" cy="302.807" fill="#fb9927" r="32.696"/><path d="m288.7 302.804c0 18.06-14.64 32.7-32.7 32.7-4.39 0-8.58-.87-12.41-2.44 11.9-4.89 20.28-16.6 20.28-30.26s-8.38-25.36-20.28-30.25c3.83-1.57 8.02-2.44 12.41-2.44 18.06 0 32.7 14.64 32.7 32.69z" fill="#f98824"/><g><circle cx="256" cy="43.481" fill="#ffd597" r="24.315"/><path d="m280.319 43.486c0 13.426-10.893 24.307-24.32 24.307-3.818 0-7.424-.873-10.644-2.446 8.086-3.956 13.664-12.253 13.664-21.862s-5.578-17.919-13.664-21.874c3.219-1.572 6.826-2.446 10.644-2.446 13.427.001 24.32 10.882 24.32 24.321z" fill="#fcc16d"/></g><path d="m355.503 465.046h-199.006v-26.094c0-8.284 6.716-15 15-15h169.005c8.284 0 15 6.716 15 15v26.094z" fill="#756f6f"/><path d="m355.5 438.954v26.09h-24.82v-26.09c0-8.29-6.72-15-15-15h24.82c8.29 0 15 6.71 15 15z" fill="#5b5555"/><g><path d="m388.237 492.834h-264.474c-5.523 0-10-4.477-10-10v-16.213c0-5.523 4.477-10 10-10h264.473c5.523 0 10 4.477 10 10v16.213c.001 5.523-4.477 10-9.999 10z" fill="#ffd597"/><path d="m398.24 466.624v16.21c0 5.52-4.48 10-10 10h-24.83c5.53 0 10-4.48 10-10v-16.21c0-5.53-4.47-10-10-10h24.83c5.52 0 10 4.47 10 10z" fill="#fcc16d"/></g><path d="m290.577 355.356h-69.154c-5.523 0-10-4.477-10-10v-12.823c0-5.523 4.477-10 10-10h69.154c5.523 0 10 4.477 10 10v12.823c0 5.523-4.477 10-10 10z" fill="#ffd597"/><path d="m300.58 332.534v12.82c0 5.52-4.48 10-10 10h-24.83c5.53 0 10-4.48 10-10v-12.82c0-5.52-4.47-10-10-10h24.83c5.52 0 10 4.48 10 10z" fill="#fcc16d"/><path d="m495.102 334.024-47.625-183.641c9.952-3.754 17.052-13.372 17.052-24.621 0-11.9-7.946-21.975-18.809-25.212v-17.624h11.543c11.028 0 20-8.972 20-20s-8.972-20-20-20h-11.57c-.285-3.882-3.517-6.944-7.472-6.944-3.954 0-7.187 3.063-7.472 6.944h-7.725c-18.76 0-35.619 11.124-42.953 28.34-6.04 14.181-15.989 21.074-30.416 21.074-12.436 0-18.913-3.8-22.158-6.987-8.893-8.737-20.577-13.549-32.899-13.549h-17.793l-.116-4.182c6.804-5.839 11.126-14.492 11.126-24.14 0-17.543-14.272-31.815-31.815-31.815s-31.815 14.272-31.815 31.815c0 9.649 4.323 18.302 11.128 24.141l-.116 4.181h-17.795c-12.322 0-24.006 4.812-32.899 13.549-3.245 3.188-9.723 6.987-22.159 6.987-14.426 0-24.375-6.894-30.416-21.074-7.333-17.216-24.193-28.34-42.953-28.34h-7.725c-.285-3.882-3.517-6.944-7.472-6.944s-7.187 3.063-7.472 6.944h-11.57c-11.028 0-20 8.972-20 20s8.972 20 20 20h11.542v17.625c-10.862 3.237-18.807 13.312-18.807 25.211 0 11.249 7.099 20.868 17.051 24.621l-47.624 183.641c-9.521 1.261-16.898 9.412-16.898 19.272v4.855c0 27.385 22.279 49.664 49.664 49.664h48.228c27.385 0 49.664-22.279 49.664-49.664v-4.855c0-9.86-7.377-18.011-16.898-19.272l-47.624-183.642c9.951-3.754 17.05-13.372 17.05-24.621 0-11.9-7.945-21.974-18.807-25.211v-17.625h7.697c2.698 0 5.113 1.577 6.152 4.016 1.209 2.838 2.577 5.64 4.066 8.328 2.008 3.623 6.572 4.932 10.195 2.926 3.623-2.007 4.933-6.572 2.926-10.195-1.24-2.237-2.379-4.571-3.387-6.937-3.4-7.981-11.232-13.138-19.953-13.138h-7.697v-10h7.697c12.736 0 24.18 7.544 29.153 19.219 8.415 19.754 23.705 30.195 44.216 30.195 17.506 0 27.429-6.138 32.671-11.287 6.071-5.965 14.021-9.25 22.387-9.25h17.377l-.278 10h-17.099c-5.728 0-11.19 2.267-15.378 6.383-6.573 6.457-18.792 14.154-39.679 14.154-10.535 0-20.057-2.325-28.303-6.911-3.621-2.015-8.187-.711-10.2 2.909-2.014 3.62-.711 8.187 2.909 10.2 10.502 5.841 22.477 8.803 35.594 8.803 25.958 0 41.622-10.035 50.191-18.454 1.367-1.343 3.095-2.083 4.866-2.083h16.681l-4.474 160.723c-8.452 7.375-13.808 18.213-13.808 30.285 0 4.318.711 8.557 2.044 12.594-7.938 1.657-13.921 8.706-13.921 17.129v12.823c0 9.649 7.851 17.5 17.5 17.5h5.671l-1.492 53.595h-54.105c-12.407 0-22.5 10.093-22.5 22.5v10.169h-25.233c-9.649 0-17.5 7.851-17.5 17.5v16.213c0 9.649 7.851 17.5 17.5 17.5h264.473c9.649 0 17.5-7.851 17.5-17.5v-16.213c0-9.649-7.851-17.5-17.5-17.5h-25.233v-10.169c0-12.407-10.094-22.5-22.5-22.5h-54.105l-1.492-53.595h5.671c9.649 0 17.5-7.851 17.5-17.5v-12.823c0-8.423-5.983-15.472-13.921-17.129 1.333-4.037 2.044-8.277 2.044-12.595 0-12.072-5.356-22.91-13.809-30.285l-.966-34.706c-.115-4.141-3.527-7.402-7.706-7.289-4.141.115-7.403 3.565-7.288 7.706l.722 25.96c-3.544-1.026-7.284-1.586-11.154-1.586s-7.61.561-11.154 1.586l5.274-189.454c1.907.358 3.87.554 5.88.554s3.974-.196 5.881-.554l3.567 128.118c.113 4.07 3.447 7.292 7.493 7.292.07 0 .142-.001.213-.003 4.141-.115 7.403-3.565 7.288-7.706l-2.523-90.64h16.68c1.771 0 3.499.739 4.866 2.083 8.569 8.418 24.233 18.454 50.191 18.454 30.873 0 54.745-16.123 67.217-45.397 1.039-2.44 3.454-4.017 6.152-4.017h7.697v17.625c-10.862 3.238-18.806 13.312-18.806 25.211 0 11.249 7.099 20.868 17.051 24.621l-47.623 183.641c-9.521 1.261-16.898 9.412-16.898 19.272v4.855c0 27.385 22.279 49.664 49.664 49.664h48.228c27.385 0 49.664-22.279 49.664-49.664v-4.855c-.001-9.86-7.378-18.011-16.899-19.272zm-421.324-159.579 41.334 159.39h-82.67zm24.114 218.37h-48.228c-12.919 0-24.202-7.109-30.164-17.616h108.555c-5.961 10.507-17.244 17.616-30.163 17.616zm34.664-34.664c0 .688-.026 1.37-.066 2.048h-117.424c-.04-.678-.066-1.36-.066-2.048v-4.855c0-2.46 2.001-4.461 4.461-4.461h108.634c2.46 0 4.461 2.001 4.461 4.461zm-47.472-232.39c0 6.235-5.072 11.307-11.307 11.307s-11.307-5.072-11.307-11.307c0-6.234 5.072-11.307 11.307-11.307s11.307 5.073 11.307 11.307zm-18.806-57.836h-11.543c-2.757 0-5-2.243-5-5s2.243-5 5-5h11.542v10zm281.725 371.027v10.169h-131.255c-4.142 0-7.5 3.358-7.5 7.5s3.358 7.5 7.5 7.5h171.488c1.379 0 2.5 1.122 2.5 2.5v16.213c0 1.378-1.121 2.5-2.5 2.5h-264.472c-1.378 0-2.5-1.122-2.5-2.5v-16.213c0-1.378 1.122-2.5 2.5-2.5h57.589c4.142 0 7.5-3.358 7.5-7.5s-3.358-7.5-7.5-7.5h-17.356v-10.169c0-4.136 3.364-7.5 7.5-7.5h169.006c4.136 0 7.5 3.364 7.5 7.5zm-76.61-22.5h-30.785l1.492-53.595h27.802zm21.684-71.096c0 1.378-1.121 2.5-2.5 2.5h-69.154c-1.378 0-2.5-1.122-2.5-2.5v-12.823c0-1.378 1.122-2.5 2.5-2.5h69.154c1.379 0 2.5 1.122 2.5 2.5zm-11.877-42.546c0 4.309-1.093 8.5-3.167 12.224h-44.065c-2.074-3.724-3.168-7.914-3.168-12.224 0-13.896 11.305-25.2 25.2-25.2s25.2 11.305 25.2 25.2zm-42.015-259.329c0-9.272 7.543-16.815 16.815-16.815s16.815 7.543 16.815 16.815-7.544 16.815-16.815 16.815-16.815-7.543-16.815-16.815zm223.079 19.444c0 2.757-2.243 5-5 5h-11.542v-10h11.542c2.757 0 5 2.243 5 5zm-39.24 5c-8.721 0-16.553 5.157-19.953 13.138-10.11 23.732-28.581 36.276-53.416 36.276-20.888 0-33.106-7.697-39.679-14.153-4.188-4.117-9.65-6.384-15.379-6.384h-17.097l-.278-10h17.375c8.366 0 16.316 3.285 22.388 9.25 5.241 5.149 15.164 11.287 32.67 11.287 20.512 0 35.802-10.441 44.217-30.195 4.973-11.675 16.416-19.219 29.152-19.219h7.697v10zm56.533 265.91h-82.669l41.334-159.389zm-41.335-219.38c6.235 0 11.308 5.072 11.308 11.307s-5.072 11.307-11.308 11.307c-6.234 0-11.307-5.072-11.307-11.307s5.072-11.307 11.307-11.307zm-58.778 238.841c0-2.46 2.001-4.461 4.461-4.461h108.634c2.46 0 4.461 2.001 4.461 4.461v4.855c0 .688-.026 1.37-.066 2.048h-117.424c-.04-.678-.066-1.36-.066-2.048zm82.892 39.519h-48.228c-12.919 0-24.202-7.109-30.164-17.616h108.556c-5.962 10.507-17.245 17.616-30.164 17.616z"/></g></svg>